HIERARCHY
ROOT Hips
{
	OFFSET 0.000000 0.000000 0.000000
	CHANNELS 6 Xposition Yposition Zposition Zrotation Yrotation Xrotation 
	JOINT LHipJoint
	{
		OFFSET 0.000000 0.000000 0.000000
		CHANNELS 3 Zrotation Yrotation Xrotation
		JOINT LeftUpLeg
		{
			OFFSET 1.363060 -1.794630 0.839290
			CHANNELS 3 Zrotation Yrotation Xrotation
			JOINT LeftLeg
			{
				OFFSET 2.448110 -6.726130 0.000000
				CHANNELS 3 Zrotation Yrotation Xrotation
				JOINT LeftFoot
				{
					OFFSET 2.562200 -7.039590 0.000000
					CHANNELS 3 Zrotation Yrotation Xrotation
					JOINT LeftToeBase
					{
						OFFSET 0.157640 -0.433110 2.322550
						CHANNELS 3 Zrotation Yrotation Xrotation
						End Site
						{
							OFFSET 0.000000 0.000000 0.000000
						}
					}
				}
			}
		}
	}
	JOINT RHipJoint
	{
		OFFSET 0.000000 0.000000 0.000000
		CHANNELS 3 Zrotation Yrotation Xrotation
		JOINT RightUpLeg
		{
			OFFSET -1.305520 -1.794630 0.839290
			CHANNELS 3 Zrotation Yrotation Xrotation
			JOINT RightLeg
			{
				OFFSET -2.542530 -6.985550 0.000000
				CHANNELS 3 Zrotation Yrotation Xrotation
				JOINT RightFoot
				{
					OFFSET -2.568260 -7.056230 0.000000
					CHANNELS 3 Zrotation Yrotation Xrotation
					JOINT RightToeBase
					{
						OFFSET -0.164730 -0.452590 2.363150
						CHANNELS 3 Zrotation Yrotation Xrotation
						End Site
						{
							OFFSET 0.000000 0.000000 0.000000
						}
					}
				}
			}
		}
	}
	JOINT LowerBack
	{
		OFFSET 0.000000 0.000000 0.000000
		CHANNELS 3 Zrotation Yrotation Xrotation
		JOINT Spine
		{
			OFFSET 0.028270 2.035590 -0.193380
			CHANNELS 3 Zrotation Yrotation Xrotation
			JOINT Spine1
			{
				OFFSET 0.056720 2.048850 -0.042750
				CHANNELS 3 Zrotation Yrotation Xrotation
				JOINT Neck
				{
					OFFSET 0.000000 0.000000 0.000000
					CHANNELS 3 Zrotation Yrotation Xrotation
					JOINT Neck1
					{
						OFFSET -0.054170 1.746240 0.172020
						CHANNELS 3 Zrotation Yrotation Xrotation
						JOINT Head
						{
							OFFSET 0.104070 1.761360 -0.123970
							CHANNELS 3 Zrotation Yrotation Xrotation
							End Site
							{
								OFFSET 0.000000 0.000000 0.000000
							}
						}
					}
				}
				JOINT LeftShoulder
				{
					OFFSET 0.000000 0.000000 0.000000
					CHANNELS 3 Zrotation Yrotation Xrotation
					JOINT LeftArm
					{
						OFFSET 3.362410 1.200890 -0.311210
						CHANNELS 3 Zrotation Yrotation Xrotation
						JOINT LeftForeArm
						{
							OFFSET 4.983000 -0.000000 -0.000000
							CHANNELS 3 Zrotation Yrotation Xrotation
							JOINT LeftHand
							{
								OFFSET 3.483560 -0.000000 -0.000000
								CHANNELS 3 Zrotation Yrotation Xrotation
								JOINT LeftFingerBase
								{
									OFFSET 0.000000 0.000000 0.000000
									CHANNELS 3 Zrotation Yrotation Xrotation
									JOINT LeftHandIndex1
									{
										OFFSET 0.715260 -0.000000 -0.000000
										CHANNELS 3 Zrotation Yrotation Xrotation
										End Site
										{
											OFFSET 0.000000 0.000000 0.000000
										}
									}
								}
								JOINT LThumb
								{
									OFFSET 0.000000 0.000000 0.000000
									CHANNELS 3 Zrotation Yrotation Xrotation
									End Site
									{
										OFFSET 0.000000 0.000000 0.000000
									}
								}
							}
						}
					}
				}
				JOINT RightShoulder
				{
					OFFSET 0.000000 0.000000 0.000000
					CHANNELS 3 Zrotation Yrotation Xrotation
					JOINT RightArm
					{
						OFFSET -3.136600 1.374050 -0.404650
						CHANNELS 3 Zrotation Yrotation Xrotation
						JOINT RightForeArm
						{
							OFFSET -5.241900 -0.000000 -0.000000
							CHANNELS 3 Zrotation Yrotation Xrotation
							JOINT RightHand
							{
								OFFSET -3.444170 -0.000000 -0.000000
								CHANNELS 3 Zrotation Yrotation Xrotation
								JOINT RightFingerBase
								{
									OFFSET 0.000000 0.000000 0.000000
									CHANNELS 3 Zrotation Yrotation Xrotation
									JOINT RightHandIndex1
									{
										OFFSET -0.622530 -0.000000 -0.000000
										CHANNELS 3 Zrotation Yrotation Xrotation
										End Site
										{
											OFFSET 0.000000 0.000000 0.000000
										}
									}
								}
								JOINT RThumb
								{
									OFFSET 0.000000 0.000000 0.000000
									CHANNELS 3 Zrotation Yrotation Xrotation
									End Site
									{
										OFFSET 0.000000 0.000000 0.000000
									}
								}
							}
						}
					}
				}
			}
		}
	}
}
MOTION
Frames: 5
Frame Time: 0.008333
13.264989 18.154871 0.092378 5.789859 -41.982318 -5.977762 4.435008 2.655673 -0.139407 -14.003068 -17.495545 -86.789315 30.176701 19.759628 120.206556 0.655224 -6.723284 -6.526538 8.979700 -16.794600 -56.019900 -9.891173 -0.777383 -3.957332 13.186576 5.777991 -83.201518 -28.652118 -22.097408 116.604485 -0.973175 7.846204 -4.797708 -1.161300 6.841500 -19.246500 6.297112 2.719762 41.624007 3.652996 10.784361 -0.397927 8.810101 2.301217 0.613240 -2.975857 1.366316 -12.792045 -0.070007 1.573964 2.291091 -3.559500 0.338600 2.603400 4.219888 -2.704412 3.075704 -93.789972 -40.563877 64.610963 58.518780 -51.756108 -32.723094 1.683460 1.719525 17.613113 16.190842 -32.813685 -8.881300 -7.125000 0.000000 0.000000 -9.723600 -5.772500 10.802100 0.814277 0.859472 0.959671 121.277953 50.205809 90.309588 -146.625470 35.048484 -108.348988 -7.177443 -5.216544 -52.806607 68.259456 -11.269169 -45.157600 7.125000 0.000000 0.000000 42.683900 -3.176400 63.947400 
13.277612 18.146829 0.099974 5.813803 -41.884662 -5.978045 4.436415 2.659726 -0.152305 -14.102975 -17.737476 -86.865724 30.164307 19.759103 120.173378 0.624507 -6.448584 -6.356006 8.907300 -16.747700 -55.769000 -9.903401 -0.775670 -3.989438 13.144919 5.447309 -83.323577 -28.676887 -22.086877 116.672265 -0.935459 7.682931 -4.547499 -1.071600 6.580400 -18.478200 6.354684 2.727044 41.775168 3.695440 10.865864 -0.334317 8.870122 2.313367 0.698568 -2.991622 1.388316 -12.377512 -0.057306 1.523725 2.010354 -3.567000 0.307800 2.333200 4.242236 -2.685652 3.170463 -94.508891 -41.021128 64.711985 58.473588 -51.749630 -32.698187 1.711420 1.700297 17.167373 15.264158 -33.026060 -8.329300 -7.125000 0.000000 0.000000 -10.272900 -5.779900 11.432400 0.818287 0.772670 0.896138 121.826270 49.818013 90.752651 -146.909205 34.735565 -108.606634 -7.260811 -5.418001 -52.801477 69.112563 -10.813296 -46.660900 7.125000 0.000000 0.000000 42.484600 -1.598600 64.768000 
13.289117 18.150850 0.108240 5.891524 -41.855162 -5.941931 4.434881 2.667823 -0.159883 -14.228843 -17.836162 -86.939999 30.143479 19.771034 120.104761 0.598610 -6.184480 -6.243166 8.950000 -16.775500 -55.917100 -9.913177 -0.767172 -4.015656 13.082005 5.246916 -83.434884 -28.679951 -22.089865 116.667057 -0.907994 7.465873 -4.477858 -1.157700 6.831100 -19.215900 6.272014 2.764618 41.882420 3.746515 10.952668 -0.283338 9.001938 2.328382 0.698283 -2.948717 1.442324 -11.897806 -0.069728 1.497274 1.717981 -3.609200 0.286900 2.062100 4.274856 -2.687395 3.243051 -95.220451 -41.257796 64.617306 58.373705 -51.729330 -32.618237 1.714228 1.692779 16.634477 14.542296 -32.857713 -7.840700 -7.125000 0.000000 0.000000 -10.654300 -5.456300 11.816800 0.817109 0.700288 0.830873 122.300017 49.310545 91.232612 -147.236415 34.377299 -108.863493 -7.359327 -5.578163 -52.694760 69.762885 -10.507280 -48.084800 7.125000 0.000000 0.000000 42.353300 -0.707500 65.069100 
13.298277 18.155207 0.122873 5.819757 -41.896560 -5.805008 4.424811 2.672931 -0.172396 -14.222430 -17.814416 -87.016695 30.144019 19.773342 120.104345 0.589881 -6.126680 -6.174575 8.972800 -16.790200 -55.996200 -9.925772 -0.757816 -4.040875 13.149133 5.200806 -83.449431 -28.664841 -22.100993 116.612384 -0.895331 7.231764 -4.612236 -1.321200 7.279700 -20.546800 6.260703 2.780613 41.985845 3.815238 11.045938 -0.224367 9.175722 2.342885 0.698585 -2.954656 1.520270 -11.333446 -0.080700 1.497388 1.433616 -3.638200 0.281500 1.776300 4.312729 -2.699538 3.310704 -96.025584 -41.414161 64.355083 58.217702 -51.696291 -32.502101 1.730337 1.666375 16.008197 13.333896 -32.685955 -7.052100 -7.125000 0.000000 0.000000 -11.310200 -5.028000 12.494600 0.812402 0.629691 0.769165 122.694557 48.703454 91.695950 -147.524848 34.044807 -109.075945 -7.425524 -5.809387 -52.871386 70.425626 -10.053376 -49.392800 7.125000 0.000000 0.000000 42.205200 0.517500 65.542000 
13.303638 18.156324 0.138399 5.724033 -41.993754 -5.668773 4.418359 2.668631 -0.194672 -14.142585 -17.780294 -87.054081 30.155686 19.766486 120.144976 0.593233 -6.255386 -6.100249 8.744100 -16.640200 -55.200800 -9.933176 -0.758101 -4.059088 13.182128 5.328974 -83.458882 -28.659826 -22.111824 116.590867 -0.882374 7.008742 -4.736835 -1.328200 7.298300 -20.602100 6.342802 2.830976 42.091002 3.853378 11.174307 -0.150103 9.281295 2.385018 0.775692 -3.038383 1.563435 -10.785891 -0.014851 1.464845 1.160423 -3.604900 0.266600 1.481300 4.280302 -2.700171 3.374854 -96.947990 -41.613468 64.229776 58.011844 -51.656218 -32.343036 1.765737 1.612499 15.695993 11.782323 -32.543949 -6.068400 -7.125000 0.000000 0.000000 -12.164200 -4.567000 13.389300 0.988268 0.558557 0.722330 124.296038 48.928220 92.682976 -146.918197 34.721639 -108.674346 -7.308115 -6.021579 -53.566011 71.351803 -9.390460 -50.801200 7.125000 0.000000 0.000000 42.040500 2.027000 66.071900 
